:FULLY-SPECIFIED
:DEGREES
16
root -0.567874014377594 -0.567874014377594 -0.567874014377594 -0.5678755879732001 -0.5678755879732001 -0.5678755879732001
lhipjoint -9.671654586443837e-08 -1.5341245206083327e-07 1.0672170578144923e-06
lfemur -7.401834168634152 -3.170163574482895 -14.078972459725257
ltibia 18.686181795482625 -1.1443837263850352e-06 3.5079350270471704e-07
lfoot -14.097050262910988 4.034783986700996e-07 9.442192673729966
ltoes -43.264941957759085 1.8576189917043615e-07 5.788328613674134e-07
rhipjoint 1.1005675908711953e-07 6.870210827458292e-07 -1.494104084495789e-06
rfemur -0.4223514174343498 7.485013066120214 7.510568218899816
rtibia 5.743917165074392 3.0901485596426016e-07 -1.6406479633331582e-06
rfoot -15.30806073200082 2.703862102247748e-06 -16.208098664595497
rtoes -9.169365036202038 -1.5771731501108793e-06 -7.431976170849599e-07
lowerback 20.294213231778727 0.756443557300618 -3.79246253664958
upperback -0.8822552682862825 0.1007999451112614 0.9764576108450687
thorax -11.262609696041261 0.326196174381469 3.191597775315453
lowerneck -11.457395592112624 -2.029057957114028 -1.9248847656666397
upperneck 23.5797988923852 -3.0151462414105206 2.3060364286666197
head 9.370881229926802 -1.331763944747426 0.7745436119620046
lclavicle -1.4085775951116125e-07 5.4855408257763046e-08 -1.0938974842598547e-06
lhumerus 84.3388890033723 30.904864296069345 100.33993902101533
lradius -3.475227783902579 5.571788817628862e-07 -2.668299124465744e-07
lwrist -1.5969246491271423e-06 -57.26925105834599 3.8505782184362313e-07
lhand -4.562975323145072 2.6246558075710764e-07 -26.656099019086014
lfingers 7.125022823272814 9.845282338726802e-08 3.18924141240953e-07
lthumb 21.213298854421275 -1.2803152392500461e-07 2.20318914769186
rclavicle 1.398304276268298e-07 4.3880174074018323e-07 -1.3740421654916584e-06
rhumerus 75.89275903800458 -16.224719929940722 -55.564213860362784
rradius 11.181772699666867 -1.2049921728395042e-06 -1.372586133002922e-06
rwrist 3.450223480685453e-07 37.114151704487504 7.712714318140526e-07
rhand -6.972260092956778 2.0321462048512455e-07 -36.68780446630613
rfingers 7.125022396385991 5.1024341088409163e-08 -3.1892353057445414e-07
rthumb 18.897492480477187 1.5447771905696147e-06 -65.78980959509936
17
root -0.567874014377594 -0.567874014377594 -0.567874014377594 -0.5678755879732001 -0.5678755879732001 -0.5678755879732001
lhipjoint -9.671654586443837e-08 -1.5341245206083327e-07 1.0672170578144923e-06
lfemur -9.130993887218553 -3.2406923212958585 -13.567035267280815
ltibia 17.481403020236783 -4.7614847536530155e-07 -4.4340555547494545e-07
lfoot -13.327409179308319 1.4652445964270623e-06 9.948281516697584
ltoes -42.61258034484741 5.802903187446472e-07 3.8327872133256223e-07
rhipjoint 1.1005675908711953e-07 6.870210827458292e-07 -1.494104084495789e-06
rfemur -1.7748930644412193 6.801201847175217 7.375958850737205
rtibia 3.611654622714649 2.2149912046010925e-07 -8.126365046681695e-07
rfoot -13.813573506693364 1.3468858262881994e-06 -16.286435811733664
rtoes -7.461366097439983 1.1169853596925354e-06 -9.588286396022064e-07
lowerback 21.329149108028446 0.6604521320661116 -3.776193879820256
upperback 0.09465262811590448 -0.08522709379331249 0.8429000918146393
thorax -10.931387356204308 0.23066920201052352 3.1063162467820855
lowerneck -11.457395592112624 -2.029057957114028 -1.9248847656666397
upperneck 23.5797988923852 -3.0151462414105206 2.3060364286666197
head 9.370881229926802 -1.331763944747426 0.7745436119620046
lclavicle -1.4085775951116125e-07 5.4855408257763046e-08 -1.0938974842598547e-06
lhumerus 85.84051975277795 31.750834451194198 93.98939305527756
lradius -1.9070844389159403 -1.0145052416342858e-06 -1.0688083529327221e-07
lwrist -1.7439012869566902e-06 -59.07817884869968 4.2049650354867534e-07
lhand -4.562975323145072 2.6246558075710764e-07 -26.656099019086014
lfingers 7.125022823272814 9.845282338726802e-08 3.18924141240953e-07
lthumb 21.213298854421275 -1.2803152392500461e-07 2.20318914769186
rclavicle 1.398304276268298e-07 4.3880174074018323e-07 -1.3740421654916584e-06
rhumerus 77.86149276436906 -20.774670936112226 -55.36525044984031
rradius 11.767075515307354 -1.2531849551505375e-06 -1.5212178805998287e-06
rwrist 3.8805744113036756e-07 39.917193037969035 8.674744580418406e-07
rhand -6.972260092956778 2.0321462048512455e-07 -36.68780446630613
rfingers 7.125022396385991 5.1024341088409163e-08 -3.1892353057445414e-07
rthumb 18.897492480477187 1.5447771905696147e-06 -65.78980959509936
18
root -0.567874014377594 -0.567874014377594 -0.567874014377594 -0.5678755879732001 -0.5678755879732001 -0.5678755879732001
lhipjoint -9.671654586443837e-08 -1.5341245206083327e-07 1.0672170578144923e-06
lfemur -10.53126377556756 -3.323597157441473 -13.23900945597543
ltibia 16.616057325983896 -5.878662473292686e-07 3.926156085443414e-07
lfoot -12.827342855641358 2.04812699090379e-06 10.518697081268384
ltoes -42.50165807272641 1.2625572610192495e-06 -3.8017042885346157e-07
rhipjoint 1.1005675908711953e-07 6.870210827458292e-07 -1.494104084495789e-06
rfemur -2.9438394933624106 6.452698274964487 7.403907984820897
rtibia 2.103343094527087 1.0764513530544663e-07 -2.5398264957730767e-06
rfoot -12.889479647841904 1.5675450767569028e-06 -16.514784403612822
rtoes -5.976346794982634 3.933378234569707e-07 -6.555076380731397e-07
lowerback 22.073284557722996 0.6474612189864531 -3.742384443428693
upperback 0.9782742277208805 -0.13967738186697398 0.7171563625555575
thorax -10.57513920324843 0.1948380162844234 2.9835638735752044
lowerneck -11.457395592112624 -2.029057957114028 -1.9248847656666397
upperneck 23.5797988923852 -3.0151462414105206 2.3060364286666197
head 9.370881229926802 -1.331763944747426 0.7745436119620046
lclavicle -1.4085775951116125e-07 5.4855408257763046e-08 -1.0938974842598547e-06
lhumerus 85.15077992963339 32.34727730537098 87.34809959695068
lradius 0.9776732777956252 9.343406076654331e-07 1.0037567224771234e-07
lwrist -1.7068707758002218e-06 -58.642658666462985 4.115669308916231e-07
lhand -4.562975323145072 2.6246558075710764e-07 -26.656099019086014
lfingers 7.125022823272814 9.845282338726802e-08 3.18924141240953e-07
lthumb 21.213298854421275 -1.2803152392500461e-07 2.20318914769186
rclavicle 1.398304276268298e-07 4.3880174074018323e-07 -1.3740421654916584e-06
rhumerus 77.83837940421773 -25.290202911508743 -55.15445715167538
rradius 13.325629061255885 -5.453449283484713e-07 -1.605268592611806e-06
rwrist 4.1734192763785e-07 41.65846438949916 9.329383138285946e-07
rhand -6.972260092956778 2.0321462048512455e-07 -36.68780446630613
rfingers 7.125022396385991 5.1024341088409163e-08 -3.1892353057445414e-07
rthumb 18.897492480477187 1.5447771905696147e-06 -65.78980959509936
19
root -0.567874014377594 -0.567874014377594 -0.567874014377594 -0.5678755879732001 -0.5678755879732001 -0.5678755879732001
lhipjoint -9.671654586443837e-08 -1.5341245206083327e-07 1.0672170578144923e-06
lfemur -11.535244380725135 -3.3660533998788607 -13.05664340513609
ltibia 16.171277114779958 -4.6793053273489866e-07 3.9900043212297345e-07
lfoot -12.647766083304322 2.589105094007924e-07 11.033377448438232
ltoes -42.64850713988168 6.158520751936533e-08 1.5718050862528175e-06
rhipjoint 1.1005675908711953e-07 6.870210827458292e-07 -1.494104084495789e-06
rfemur -4.005427408083754 6.305588806847106 7.529747390089212
rtibia 1.571572313393397 7.56354477691364e-08 -1.6916041133291968e-06
rfoot -12.546467547723864 1.6491474232195268e-06 -16.592484635610887
rtoes -4.863681658430877 4.83378206933955e-07 -5.48239283997478e-07
lowerback 22.537587157122122 0.6952450089764508 -3.7053511577488836
upperback 1.676797460694673 -0.09465277485824992 0.5997591244622312
thorax -10.261909289232584 0.203375792767579 2.8366874856632505
lowerneck -11.457395592112624 -2.029057957114028 -1.9248847656666397
upperneck 23.5797988923852 -3.0151462414105206 2.3060364286666197
head 9.370881229926802 -1.331763944747426 0.7745436119620046
lclavicle -1.4085775951116125e-07 5.4855408257763046e-08 -1.0938974842598547e-06
lhumerus 83.15980027714218 33.121660247804925 80.36509177444806
lradius 4.326487707096197 -5.104072730612806e-07 4.135755147840609e-07
lwrist -1.561437190435495e-06 -56.79823096789816 3.765016463061747e-07
lhand -4.562975323145072 2.6246558075710764e-07 -26.656099019086014
lfingers 7.125022823272814 9.845282338726802e-08 3.18924141240953e-07
lthumb 21.213298854421275 -1.2803152392500461e-07 2.20318914769186
rclavicle 1.398304276268298e-07 4.3880174074018323e-07 -1.3740421654916584e-06
rhumerus 76.50207338367225 -29.60572816498707 -54.20045389444844
rradius 15.205624969923555 -1.562901975810715e-06 -1.9731851839440247e-06
rwrist 4.270057504264462e-07 42.20614310809663 9.545399287808461e-07
rhand -6.972260092956778 2.0321462048512455e-07 -36.68780446630613
rfingers 7.125022396385991 5.1024341088409163e-08 -3.1892353057445414e-07
rthumb 18.897492480477187 1.5447771905696147e-06 -65.78980959509936
20
root -0.567874014377594 -0.567874014377594 -0.567874014377594 -0.5678755879732001 -0.5678755879732001 -0.5678755879732001
lhipjoint -9.671654586443837e-08 -1.5341245206083327e-07 1.0672170578144923e-06
lfemur -12.251459724639965 -3.264406524650731 -12.990007225819799
ltibia 16.208885843897338 -1.2399831596675937e-06 1.1610866764613339e-06
lfoot -12.765434874778009 -1.1472188473836541e-06 11.369655835808285
ltoes -42.88113655282314 9.288870504975335e-07 1.2479456401459814e-06
rhipjoint 1.1005675908711953e-07 6.870210827458292e-07 -1.494104084495789e-06
rfemur -5.075555407145141 6.220581126210773 7.706597209400121
rtibia 2.089218476766912 7.243079720540612e-08 -8.324948703217296e-07
rfoot -12.70550167235844 1.606057268395059e-06 -16.348539306762007
rtoes -4.2026696109353825 -1.1700659166602919e-06 -3.794197161708864e-07
lowerback 22.803293468666666 0.7712512473386469 -3.6522532671412047
upperback 2.1618093003789842 0.008127931782421785 0.4998743846791119
thorax -10.039842763842545 0.23633823234120765 2.676970128668261
lowerneck -11.457395592112624 -2.029057957114028 -1.9248847656666397
upperneck 23.5797988923852 -3.0151462414105206 2.3060364286666197
head 9.370881229926802 -1.331763944747426 0.7745436119620046
lclavicle -1.4085775951116125e-07 5.4855408257763046e-08 -1.0938974842598547e-06
lhumerus 80.36593188771597 34.09694637448563 72.87236059456573
lradius 7.623720547784832 -2.543563367634984e-07 4.825587433813853e-07
lwrist -1.3916212184382947e-06 -54.32923711124902 3.3555592322569945e-07
lhand -4.562975323145072 2.6246558075710764e-07 -26.656099019086014
lfingers 7.125022823272814 9.845282338726802e-08 3.18924141240953e-07
lthumb 21.213298854421275 -1.2803152392500461e-07 2.20318914769186
rclavicle 1.398304276268298e-07 4.3880174074018323e-07 -1.3740421654916584e-06
rhumerus 74.26275488314855 -33.61735098153485 -52.233055470066695
rradius 17.01384925079273 -9.237731256807395e-07 -1.6704822786895346e-06
rwrist 4.200209215682655e-07 41.81158357031251 9.389274255159776e-07
rhand -6.972260092956778 2.0321462048512455e-07 -36.68780446630613
rfingers 7.125022396385991 5.1024341088409163e-08 -3.1892353057445414e-07
rthumb 18.897492480477187 1.5447771905696147e-06 -65.78980959509936
